<?xml version="1.0" standalone="no"?>
<!DOCTYPE svg PUBLIC "-//W3C//DTD SVG 20010904//EN"
 "http://www.w3.org/TR/2001/REC-SVG-20010904/DTD/svg10.dtd">
<svg version="1.0" xmlns="http://www.w3.org/2000/svg"
 width="300.000000pt" height="300.000000pt" viewBox="0 0 300.000000 300.000000"
 preserveAspectRatio="xMidYMid meet">
<metadata>
Created by potrace 1.10, written by Peter Selinger 2001-2011
</metadata>
<g transform="translate(0.000000,300.000000) scale(0.100000,-0.100000)"
fill="#000000" stroke="none">
<path d="M1415 2989 c-312 -20 -607 -237 -725 -533 -54 -134 -62 -188 -67
-464 -5 -221 -3 -259 12 -297 15 -40 73 -105 94 -105 5 0 10 -31 13 -69 6
-110 62 -167 175 -178 37 -4 57 -11 61 -22 8 -24 61 -102 89 -132 l24 -27 -50
-100 -50 -100 -143 -47 c-79 -26 -171 -60 -204 -75 -261 -117 -456 -397 -483
-695 -10 -100 -2 -131 35 -138 28 -5 31 5 8 24 -14 11 -16 29 -12 109 10 187
92 364 238 510 106 106 190 155 370 214 216 71 202 61 260 176 27 55 50 109
50 119 0 11 -13 35 -29 53 -16 18 -45 61 -65 94 -37 64 -52 74 -116 74 -44 0
-95 30 -114 69 -9 16 -16 54 -17 85 -2 55 -4 58 -50 97 -32 27 -53 53 -60 78
-7 25 -10 120 -7 292 4 220 8 265 27 334 65 241 218 430 436 538 92 45 148 63
277 85 94 16 117 17 185 6 136 -23 186 -36 271 -76 226 -102 386 -280 463
-513 22 -66 23 -89 27 -375 3 -304 3 -306 -19 -334 -31 -39 -77 -56 -154 -56
-72 0 -105 -20 -105 -63 0 -76 -62 -229 -129 -317 -22 -30 -41 -63 -41 -72 0
-10 23 -64 50 -119 58 -115 40 -102 266 -178 162 -55 255 -105 345 -188 152
-141 254 -355 258 -544 2 -67 -1 -88 -13 -99 -23 -18 -20 -28 8 -23 37 7 45
38 35 138 -27 298 -222 578 -483 695 -33 15 -125 49 -204 75 l-143 47 -50 100
-50 100 24 27 c73 79 140 227 153 336 l7 55 73 0 c111 0 159 26 195 105 16 35
19 67 19 255 0 228 -14 362 -48 460 -114 327 -410 564 -737 588 -49 4 -130 4
-180 1z"/>
<path d="M1310 2889 c-146 -38 -273 -112 -376 -220 -121 -128 -183 -250 -214
-421 -15 -81 -1 -98 80 -98 69 0 90 18 90 77 0 52 34 165 68 223 39 68 139
168 208 206 93 52 194 74 339 74 207 0 337 -51 458 -180 89 -94 147 -225 147
-331 0 -51 24 -69 92 -69 78 0 91 16 77 100 -40 247 -219 481 -450 590 -153
71 -360 91 -519 49z m347 -23 c258 -56 469 -241 561 -496 11 -30 23 -68 26
-85 2 -16 7 -47 11 -67 l6 -38 -59 0 -59 0 -6 63 c-21 216 -178 412 -395 491
-50 18 -80 21 -242 21 -162 0 -192 -3 -242 -21 -217 -79 -374 -275 -395 -491
l-6 -63 -59 0 c-60 0 -60 0 -54 28 2 15 8 45 11 67 36 225 237 466 465 555
125 49 304 64 437 36z"/>
<path d="M1330 2666 c-146 -41 -273 -146 -336 -279 -41 -86 -50 -162 -22 -180
13 -9 26 -1 70 38 67 61 172 111 265 127 80 13 80 13 201 -85 104 -85 254
-151 417 -183 119 -24 120 -23 120 102 0 94 -2 103 -39 179 -68 140 -190 241
-337 280 -67 18 -276 18 -339 1z m333 -31 c175 -46 311 -183 351 -355 17 -72
21 -160 7 -160 -5 0 -45 7 -88 15 -188 36 -348 113 -475 231 -41 38 -53 44
-92 44 -118 0 -244 -51 -337 -138 -40 -36 -60 -50 -56 -37 3 11 11 40 17 65
39 153 180 291 343 335 71 19 258 19 330 0z"/>
<path d="M1285 2316 c-110 -27 -183 -79 -271 -192 -61 -79 -64 -84 -64 -138 0
-72 26 -319 45 -433 20 -117 37 -133 138 -133 77 0 98 10 129 61 27 43 75 59
177 59 103 0 146 -13 179 -55 29 -37 30 -117 2 -162 -31 -51 -65 -63 -182 -63
-118 0 -149 13 -187 74 -16 26 -32 37 -57 42 -47 9 -102 -3 -114 -25 -22 -42
103 -176 215 -231 269 -132 586 21 684 332 24 74 57 299 67 448 8 128 5 132
-111 150 -178 27 -335 96 -489 212 -50 38 -95 68 -100 67 -6 0 -33 -6 -61 -13z
m120 -58 c76 -63 179 -127 265 -164 79 -35 267 -84 318 -84 16 0 31 -2 33 -4
8 -8 -20 -286 -41 -414 -29 -176 -66 -259 -155 -347 -161 -162 -413 -183 -593
-51 -52 38 -132 126 -132 145 0 3 27 4 60 3 55 -3 62 -6 75 -33 9 -15 32 -40
52 -54 35 -23 46 -25 154 -25 104 0 119 2 150 23 55 37 79 81 79 147 0 66 -24
110 -79 147 -30 21 -46 23 -148 23 -65 0 -124 -5 -136 -11 -33 -17 -68 -51
-78 -76 -8 -21 -14 -23 -97 -23 l-89 0 -11 58 c-21 112 -34 209 -46 357 l-12
150 52 71 c92 124 181 180 324 203 3 1 28 -18 55 -41z"/>
<path d="M731 2083 c-22 -18 -22 -22 -19 -197 l3 -178 28 -24 c23 -19 39 -24
86 -24 86 0 87 2 73 178 -7 81 -12 163 -12 183 0 54 -18 71 -82 76 -42 3 -60
0 -77 -14z m136 -164 c6 -79 13 -163 16 -186 l5 -43 -54 0 c-91 0 -94 8 -94
208 l0 167 57 -1 58 -2 12 -143z"/>
<path d="M2132 2082 c-15 -15 -20 -49 -31 -205 -16 -219 -16 -217 66 -217 111
0 123 24 123 244 0 159 -1 165 -22 180 -32 22 -113 21 -136 -2z m128 -184 c0
-201 -3 -208 -96 -208 -48 0 -55 2 -50 18 2 9 10 89 16 177 6 88 13 165 15
170 1 6 28 10 59 10 l56 0 0 -167z"/>
<path d="M842 1598 c-18 -18 -15 -96 5 -129 20 -33 57 -47 82 -32 27 18 16
138 -15 160 -22 16 -56 17 -72 1z m68 -46 c0 -15 4 -42 9 -60 8 -27 7 -32 -7
-32 -9 0 -22 4 -29 8 -15 10 -33 57 -33 88 0 20 5 24 30 24 26 0 30 -4 30 -28z"/>
<path d="M1329 1461 c-37 -37 -38 -79 -3 -120 25 -30 28 -31 115 -31 82 0 92
2 114 25 18 17 25 35 25 62 -1 70 -37 93 -145 93 -71 0 -79 -2 -106 -29z m211
-21 c26 -26 25 -55 0 -80 -18 -18 -31 -20 -102 -18 -74 3 -83 5 -100 29 -17
23 -18 30 -8 50 19 36 28 39 113 39 64 0 80 -3 97 -20z"/>
<path d="M1677 954 c-70 -75 -127 -143 -127 -151 0 -20 203 -223 222 -223 9 0
22 10 30 23 19 29 90 188 113 254 l19 52 -24 53 c-39 85 -69 128 -89 128 -10
0 -71 -57 -144 -136z m209 -97 c-21 -60 -107 -247 -113 -247 -3 0 -49 44 -103
97 l-98 97 127 133 126 133 40 -80 40 -80 -19 -53z"/>
<path d="M1137 1052 c-31 -34 -69 -132 -64 -162 9 -41 114 -282 132 -299 21
-21 38 -9 138 96 56 59 87 99 87 114 0 27 -235 269 -260 269 -9 0 -24 -8 -33
-18z m188 -344 c-50 -51 -94 -93 -98 -93 -9 0 -86 164 -113 242 l-18 52 34 71
34 71 125 -125 125 -125 -89 -93z"/>
<path d="M1371 1017 c-6 -6 -11 -17 -11 -25 0 -19 113 -132 132 -132 8 0 38
25 67 55 48 52 63 87 42 99 -18 12 -219 14 -230 3z m174 -76 l-54 -55 -56 55
-55 54 110 0 110 0 -55 -54z"/>
<path d="M823 816 c-181 -63 -244 -98 -339 -191 -118 -116 -195 -256 -229
-419 -14 -71 -14 -81 0 -102 l15 -23 558 -1 c539 0 559 0 576 19 17 18 17 21
0 52 -9 19 -57 92 -105 165 -94 139 -200 333 -245 449 -28 73 -49 105 -68 104
-6 0 -79 -24 -163 -53z m197 -38 c34 -93 152 -323 213 -413 29 -44 77 -115
105 -157 29 -43 52 -81 52 -85 0 -5 -252 -8 -560 -8 l-560 0 6 45 c31 223 187
458 368 553 39 20 319 123 342 126 6 0 21 -27 34 -61z"/>
<path d="M1988 853 c-9 -10 -32 -58 -53 -108 -57 -140 -121 -256 -236 -430
-58 -88 -109 -169 -113 -179 -4 -12 0 -26 10 -37 16 -18 44 -19 574 -19 419 0
559 3 568 12 30 30 2 178 -57 304 -64 136 -196 280 -319 347 -40 22 -331 127
-352 127 -4 0 -14 -8 -22 -17z m165 -62 c171 -58 225 -84 300 -146 140 -114
246 -304 271 -485 l6 -45 -560 0 c-308 0 -560 3 -560 8 0 4 23 42 52 85 28 42
76 113 105 157 61 90 179 320 213 413 13 34 24 62 26 62 2 0 68 -22 147 -49z"/>
<path d="M2107 662 c-36 -39 -13 -94 38 -94 34 -1 55 19 55 52 0 52 -60 79
-93 42z m61 -39 c-2 -10 -13 -19 -26 -21 -17 -3 -22 2 -22 17 0 16 6 21 26 21
19 0 25 -5 22 -17z"/>
<path d="M2316 549 c-14 -11 -26 -29 -26 -40 0 -11 24 -43 54 -72 29 -28 68
-76 86 -105 34 -55 64 -71 98 -53 33 17 36 46 10 98 -26 53 -157 193 -180 193
-9 0 -27 -9 -42 -21z m104 -65 c75 -70 121 -160 91 -178 -17 -11 -38 5 -60 44
-12 22 -44 63 -72 91 -86 88 -49 128 41 43z"/>
<path d="M1367 625 c-59 -63 -107 -122 -107 -129 0 -8 28 -56 63 -107 34 -50
79 -119 100 -153 21 -33 47 -70 58 -81 17 -17 21 -18 33 -5 27 28 226 334 226
348 0 24 -221 242 -245 242 -14 0 -56 -37 -128 -115z m343 -128 c0 -4 -45 -75
-99 -158 -55 -82 -102 -155 -105 -162 -5 -9 -7 -9 -12 0 -3 7 -50 80 -105 162
-54 83 -99 153 -99 157 0 3 46 55 102 115 l102 110 108 -108 c59 -59 108 -111
108 -116z"/>
</g>
</svg>
