<?xml version="1.0" standalone="no"?>
<!DOCTYPE svg PUBLIC "-//W3C//DTD SVG 20010904//EN"
 "http://www.w3.org/TR/2001/REC-SVG-20010904/DTD/svg10.dtd">
<svg version="1.0" xmlns="http://www.w3.org/2000/svg"
 width="540.000000pt" height="488.000000pt" viewBox="0 0 540.000000 488.000000"
 preserveAspectRatio="xMidYMid meet">

<g transform="translate(0.000000,488.000000) scale(0.100000,-0.100000)"
fill="#000000" stroke="none">
<path d="M2104 4811 c-152 -25 -601 -220 -669 -291 -46 -49 -34 -119 51 -295
57 -118 87 -154 141 -166 108 -24 1122 -36 1584 -19 286 10 300 14 347 86 73
115 150 312 138 357 -11 43 -193 150 -331 195 -49 17 -126 47 -169 67 -125 59
-180 65 -636 70 -223 2 -428 0 -456 -4z"/>
<path d="M1629 3828 c-51 -194 -19 -479 73 -663 44 -89 116 -181 215 -276 95
-92 148 -131 232 -173 29 -15 65 -39 78 -52 24 -24 33 -26 214 -36 221 -12
313 -1 474 56 250 90 422 247 536 492 65 137 91 255 91 409 1 125 -5 169 -38
283 l-15 52 -918 0 -917 0 -25 -92z"/>
<path d="M1643 2610 c-11 -5 -92 -15 -180 -24 -89 -8 -187 -24 -224 -36 -127
-39 -237 -135 -288 -250 -38 -86 -41 -172 -41 -1056 l0 -854 61 -87 c112 -159
162 -197 295 -224 43 -9 397 -13 1326 -16 l1267 -4 93 69 c169 124 206 187
228 387 13 121 13 1559 0 1645 -21 134 -106 259 -230 339 -89 58 -163 79 -319
92 -157 13 -607 8 -634 -7 -16 -9 -16 -12 8 -45 64 -87 68 -108 67 -304 -1
-99 -4 -214 -7 -255 -2 -41 -7 -124 -10 -185 -19 -349 -74 -790 -131 -1045
-71 -318 -232 -457 -440 -379 -152 57 -239 230 -293 582 -87 564 -120 927
-120 1322 0 146 8 181 59 244 21 25 30 45 24 50 -5 5 -98 14 -206 20 -108 6
-209 16 -223 21 -31 12 -52 12 -82 0z"/>
<path d="M2493 2532 c-64 -51 -136 -132 -159 -179 -37 -78 -20 -160 52 -249
41 -50 42 -66 7 -118 l-28 -39 1 -196 c0 -154 6 -241 28 -406 37 -281 80 -535
105 -616 22 -69 59 -116 85 -106 40 15 79 122 115 307 43 220 91 669 94 875 2
102 0 114 -25 162 -16 29 -28 58 -28 65 0 7 20 44 44 81 25 37 49 90 55 118
20 92 -19 188 -97 243 -32 22 -183 96 -195 96 -3 0 -27 -17 -54 -38z"/>
</g>
</svg>
