<?xml version="1.0" standalone="no"?>
<!DOCTYPE svg PUBLIC "-//W3C//DTD SVG 20010904//EN"
 "http://www.w3.org/TR/2001/REC-SVG-20010904/DTD/svg10.dtd">
<svg version="1.0" xmlns="http://www.w3.org/2000/svg"
 width="850.000000pt" height="850.000000pt" viewBox="0 0 850.000000 850.000000"
 preserveAspectRatio="xMidYMid meet">

<g transform="translate(0.000000,850.000000) scale(0.100000,-0.100000)"
fill="#649FA0" stroke="none">
<path d="M0 4250 l0 -4250 4250 0 4250 0 0 4250 0 4250 -4250 0 -4250 0 0
-4250z m7490 2696 c284 -95 466 -276 567 -563 l28 -78 3 -1995 c2 -1964 2
-1996 -18 -2075 -25 -103 -105 -263 -170 -342 -99 -120 -248 -219 -415 -274
l-70 -24 -3165 -3 c-3484 -3 -3227 -7 -3385 59 -149 62 -261 150 -374 295 -30
38 -94 173 -118 249 l-28 90 0 2000 c0 1925 1 2002 19 2060 81 260 226 436
451 548 80 40 154 65 223 77 26 4 1469 7 3207 6 l3160 -1 85 -29z"/>
<path d="M1057 6629 c-167 -41 -302 -165 -356 -327 -21 -61 -21 -70 -21 -2015
0 -1758 2 -1959 16 -2008 49 -168 189 -298 369 -344 52 -13 419 -15 3150 -15
3396 0 3134 -5 3272 59 76 36 167 125 210 206 67 128 63 -19 63 2103 l0 1920
-21 68 c-53 175 -160 286 -334 346 l-60 21 -3113 1 c-2786 1 -3119 -1 -3175
-15z m2903 -178 c54 -27 80 -73 80 -141 0 -73 -27 -116 -93 -149 -38 -19 -56
-22 -93 -16 -76 11 -144 88 -144 162 0 40 37 110 72 134 56 40 110 43 178 10z
m-1675 -361 c22 -44 29 -50 57 -50 79 0 170 -77 210 -179 28 -72 32 -245 6
-302 -15 -34 -15 -38 0 -53 38 -38 7 -182 -44 -205 -17 -8 -24 -19 -24 -40 0
-33 -76 -191 -92 -191 -7 0 -9 -34 -6 -105 4 -85 9 -111 25 -133 32 -43 94
-86 169 -116 38 -16 114 -50 169 -76 164 -77 254 -178 271 -302 l7 -48 -843 0
-842 0 7 43 c8 53 56 153 93 192 50 54 98 84 264 164 123 59 173 89 199 118
35 38 36 42 42 142 6 98 5 105 -17 135 -29 38 -60 106 -76 165 -7 26 -23 53
-40 68 -47 39 -65 137 -34 182 15 21 15 27 1 74 -25 81 -30 138 -17 207 37
206 217 345 462 359 24 1 31 -6 53 -49z m1646 -131 c71 -24 109 -80 109 -161
0 -96 -65 -158 -168 -158 -64 0 -110 30 -141 93 -31 62 -24 120 22 171 55 62
108 78 178 55z m28 -520 c56 -31 81 -75 81 -141 0 -127 -120 -204 -234 -149
-53 26 -84 70 -92 132 -16 127 131 222 245 158z m3042 -2 c105 -70 108 -206 6
-281 l-28 -21 -1167 0 -1167 0 -33 23 c-48 35 -75 95 -69 155 5 54 28 91 77
125 l33 22 1157 0 1157 0 34 -23z m-3036 -506 c49 -28 75 -76 75 -138 0 -87
-41 -142 -121 -163 -88 -24 -191 42 -204 132 -8 51 16 118 53 151 52 47 134
54 197 18z m2510 -160 c48 -22 69 -44 91 -96 29 -71 -5 -163 -76 -200 -42 -22
-1815 -23 -1857 -1 -121 62 -122 230 -3 293 l43 23 881 0 c833 0 883 -1 921
-19z m-2507 -348 c15 -11 38 -35 50 -54 20 -29 23 -44 20 -96 -3 -53 -9 -68
-33 -94 -46 -47 -81 -62 -140 -57 -128 11 -193 144 -124 254 43 70 163 94 227
47z m3033 -336 c18 -12 44 -38 57 -57 20 -29 23 -44 20 -93 -5 -61 -23 -95
-72 -131 -27 -21 -33 -21 -1184 -23 l-1157 -3 -40 23 c-57 32 -87 88 -82 155
4 59 25 94 77 130 l33 22 1157 0 1157 0 34 -23z m-4286 -176 c123 -59 150
-100 241 -378 l74 -226 0 -414 0 -414 -25 -24 c-23 -24 -31 -25 -134 -25 -103
0 -111 1 -140 26 -28 23 -31 31 -31 85 l0 59 -505 0 -505 0 0 -45 c0 -52 -21
-99 -49 -115 -11 -5 -67 -10 -125 -10 -98 0 -106 2 -135 26 l-31 26 0 405 0
405 66 201 c96 294 92 286 154 348 99 99 88 98 625 98 l460 1 60 -29z m1251 8
c49 -30 74 -77 74 -138 0 -29 -7 -65 -15 -81 -35 -67 -127 -104 -198 -81 -53
18 -104 80 -112 135 -9 58 24 130 74 163 45 31 130 32 177 2z m11 -515 c45
-34 63 -73 63 -135 0 -96 -63 -159 -159 -159 -62 0 -101 18 -135 62 -50 67
-41 161 23 222 55 52 146 57 208 10z m2482 26 c80 -23 136 -121 112 -199 -14
-48 -44 -87 -81 -106 -42 -22 -1816 -23 -1858 -1 -121 63 -121 235 0 295 43
21 47 21 918 21 544 0 888 -4 909 -10z m-2511 -514 c15 -8 40 -28 57 -45 24
-26 30 -41 33 -94 3 -52 0 -67 -20 -96 -50 -74 -122 -97 -204 -66 -53 20 -90
69 -100 131 -11 70 38 151 106 177 29 11 101 7 128 -7z m17 -515 c50 -28 75
-76 75 -140 0 -197 -264 -231 -321 -41 -41 137 118 255 246 181z"/>
<path d="M1751 3453 c-29 -87 -55 -164 -58 -170 -4 -10 100 -13 497 -13 l502
0 -6 24 c-3 14 -29 90 -57 170 l-51 146 -387 0 -387 0 -53 -157z"/>
<path d="M1651 3099 c-126 -26 -173 -181 -84 -280 59 -65 137 -74 215 -23 48
31 71 76 71 140 0 110 -93 186 -202 163z"/>
<path d="M2664 3100 c-76 -17 -120 -65 -130 -143 -12 -87 40 -164 126 -187
112 -30 228 78 206 193 -17 91 -114 158 -202 137z"/>
</g>
</svg>
