<?xml version="1.0" standalone="no"?>
<!DOCTYPE svg PUBLIC "-//W3C//DTD SVG 20010904//EN"
 "http://www.w3.org/TR/2001/REC-SVG-20010904/DTD/svg10.dtd">
<svg version="1.0" xmlns="http://www.w3.org/2000/svg"
 width="300.000000pt" height="300.000000pt" viewBox="0 0 300.000000 300.000000"
 preserveAspectRatio="xMidYMid meet">
<metadata>
Created by potrace 1.10, written by Peter Selinger 2001-2011
</metadata>
<g transform="translate(0.000000,300.000000) scale(0.100000,-0.100000)"
fill="#000000" stroke="none">
<path d="M1815 2983 c-380 -85 -647 -438 -622 -822 14 -212 97 -386 255 -532
112 -103 230 -165 375 -196 108 -23 288 -13 392 21 579 189 746 914 306 1329
-129 122 -290 195 -446 204 -49 3 -87 2 -83 -2 4 -5 58 -19 120 -31 256 -53
446 -197 554 -419 179 -371 26 -818 -341 -1003 -120 -60 -196 -77 -345 -77
-113 0 -147 4 -210 24 -278 86 -478 301 -534 573 -64 309 64 619 325 788 85
55 198 99 297 116 117 21 136 34 47 33 -38 -1 -79 -3 -90 -6z"/>
<path d="M1832 2894 c-34 -7 -95 -29 -136 -47 -183 -85 -309 -226 -379 -424
-28 -79 -31 -100 -32 -208 0 -137 19 -217 83 -340 55 -107 191 -240 302 -293
112 -55 194 -75 310 -75 274 -1 510 153 632 410 162 343 17 748 -327 919 -49
24 -121 51 -160 59 -86 18 -209 18 -293 -1z m354 -48 c201 -64 365 -229 434
-436 30 -90 37 -241 16 -339 -66 -310 -340 -531 -655 -531 -110 0 -194 20
-301 72 -70 33 -100 56 -170 127 -142 144 -195 274 -194 476 0 104 4 130 28
200 82 237 282 412 519 455 88 15 232 5 323 -24z"/>
<path d="M1970 2609 c-118 -23 -236 -118 -285 -230 -27 -63 -28 -65 -61 -61
-50 6 -84 -20 -84 -63 0 -40 20 -55 74 -55 34 0 36 -2 36 -35 0 -34 -1 -35
-38 -35 -45 0 -72 -24 -72 -63 0 -42 24 -57 93 -57 60 0 63 -2 86 -35 64 -94
187 -164 300 -173 80 -5 176 13 202 39 25 25 24 61 -1 84 -16 14 -28 16 -62
10 -24 -5 -74 -9 -113 -9 -56 0 -80 5 -121 26 -27 15 -56 34 -63 42 -12 14 0
16 126 16 123 0 142 2 156 18 24 26 21 68 -5 86 -18 13 -55 16 -195 16 -164 0
-173 1 -173 19 0 11 -3 26 -6 35 -5 14 16 16 194 16 221 0 232 3 232 60 0 55
-25 61 -224 58 -97 -2 -176 1 -176 5 0 5 14 29 32 53 66 93 183 138 294 113
70 -16 95 -14 112 8 34 47 2 89 -85 109 -65 15 -107 16 -173 3z m195 -43 c29
-8 40 -17 40 -31 0 -22 -25 -24 -121 -10 -96 14 -220 -42 -280 -127 -44 -61
-47 -75 -23 -99 18 -18 32 -20 147 -19 244 2 234 3 230 -22 -3 -23 -5 -23
-192 -26 -159 -2 -193 -5 -208 -19 -23 -21 -23 -65 1 -94 19 -23 24 -24 196
-27 175 -3 176 -3 173 -25 -3 -21 -8 -22 -139 -25 -117 -2 -139 -5 -153 -21
-15 -17 -15 -20 6 -46 36 -46 132 -85 210 -85 37 0 79 5 94 10 34 13 66 4 62
-18 -8 -43 -144 -64 -246 -38 -87 22 -143 57 -209 132 l-56 63 -61 3 c-55 3
-61 5 -64 26 -3 19 1 22 32 22 23 0 43 7 56 20 43 43 10 120 -51 120 -31 0
-49 24 -32 41 5 5 26 10 46 11 43 1 50 8 87 85 46 96 126 165 235 199 50 16
168 16 220 0z"/>
<path d="M161 1894 c0 -11 3 -14 6 -6 3 7 2 16 -1 19 -3 4 -6 -2 -5 -13z"/>
<path d="M1265 1404 c-147 -14 -245 -45 -445 -141 l-154 -74 -31 35 c-53 61
-74 66 -270 66 -134 0 -183 -3 -204 -14 -35 -19 -89 -79 -96 -109 -3 -12 -4
-254 -3 -538 l3 -516 28 -36 c15 -20 38 -42 50 -49 21 -11 107 -29 107 -22 0
2 -27 17 -60 34 -106 54 -100 14 -100 612 l0 516 27 33 c44 52 74 59 248 59
177 0 201 -6 258 -66 42 -45 16 -52 254 60 134 63 182 80 274 98 108 21 119
22 409 11 269 -10 301 -13 338 -32 92 -47 127 -152 82 -246 -39 -80 -68 -93
-324 -140 -70 -13 -139 -31 -152 -40 -36 -23 -32 -73 9 -127 l33 -43 185 2
c207 3 269 13 352 55 32 16 161 111 286 212 125 101 243 192 262 202 51 27
134 24 187 -6 61 -35 92 -90 92 -166 0 -80 -22 -112 -145 -215 -55 -46 -109
-91 -120 -101 -104 -88 -288 -236 -323 -260 -67 -46 -152 -85 -248 -114 -123
-36 -261 -40 -685 -19 -365 17 -390 16 -603 -24 -54 -10 -104 -26 -115 -35
-13 -12 -20 -35 -23 -76 -5 -73 -40 -123 -107 -152 -33 -15 -41 -22 -28 -25
76 -18 166 84 167 189 l0 47 55 10 c267 52 269 52 707 31 270 -13 417 -16 471
-10 158 18 313 76 433 161 34 24 172 136 308 248 274 227 286 242 286 347 0
163 -179 277 -318 202 -23 -13 -139 -102 -257 -198 -228 -185 -280 -221 -360
-246 -49 -15 -421 -39 -448 -28 -7 2 -24 25 -37 49 -22 39 -23 47 -10 59 9 8
90 29 184 46 94 18 181 36 195 42 108 41 169 180 126 286 -25 58 -83 111 -140
127 -30 8 -129 16 -250 20 -110 3 -227 7 -260 9 -33 2 -78 2 -100 0z"/>
<path d="M1210 1309 c-35 -5 -98 -21 -140 -35 -94 -31 -390 -174 -409 -198
-12 -14 -14 -78 -14 -357 0 -327 0 -341 20 -360 l20 -20 109 23 c94 19 140 23
329 23 121 1 270 -3 330 -7 200 -15 476 -14 525 1 25 7 56 15 70 18 42 7 152
57 210 94 81 52 541 435 568 472 58 82 -7 207 -109 207 -46 0 -62 -11 -309
-212 -313 -255 -344 -267 -670 -275 -211 -5 -216 -5 -243 17 -37 30 -87 118
-87 155 0 36 31 89 60 105 12 6 102 26 200 45 98 19 188 39 200 45 58 31 80
142 39 194 -43 54 -31 53 -519 71 -63 2 -144 -1 -180 -6z m479 -38 l163 -7 29
-32 c16 -18 29 -44 29 -58 0 -32 -25 -81 -48 -93 -9 -5 -93 -23 -187 -40 -93
-18 -182 -37 -198 -43 -41 -16 -84 -71 -92 -117 -13 -79 70 -211 145 -231 52
-13 421 5 495 25 99 26 175 76 422 275 246 199 258 206 317 178 52 -23 76
-102 44 -146 -20 -28 -494 -420 -558 -461 -70 -45 -166 -84 -257 -105 -91 -20
-227 -20 -628 0 -170 8 -337 12 -370 9 -60 -6 -265 -41 -297 -51 -17 -5 -18
16 -18 343 l0 348 168 79 c309 147 332 150 841 127z"/>
<path d="M213 1195 c-62 -26 -62 -29 -69 -386 -3 -178 -2 -402 3 -497 l9 -173
28 -24 c28 -24 34 -25 181 -25 136 0 155 2 177 20 48 37 49 45 46 553 l-3 477
-33 32 -32 33 -138 2 c-97 1 -146 -2 -169 -12z m327 -45 c19 -19 20 -33 20
-500 l0 -481 -25 -24 c-23 -24 -29 -25 -167 -25 -114 0 -148 3 -166 16 l-22
15 0 491 c0 443 2 493 17 510 14 16 34 18 170 18 140 0 155 -2 173 -20z"/>
</g>
</svg>
