<?xml version="1.0" standalone="no"?>
<!DOCTYPE svg PUBLIC "-//W3C//DTD SVG 20010904//EN"
 "http://www.w3.org/TR/2001/REC-SVG-20010904/DTD/svg10.dtd">
<svg version="1.0" xmlns="http://www.w3.org/2000/svg"
 width="534.000000pt" height="288.000000pt" viewBox="0 0 534.000000 288.000000"
 preserveAspectRatio="xMidYMid meet">
<metadata>
Created by potrace 1.10, written by Peter Selinger 2001-2011
</metadata>
<g transform="translate(0.000000,288.000000) scale(0.100000,-0.100000)"
fill="#000000" stroke="none">
<path d="M1510 2489 c-80 -4 -242 -13 -360 -19 -403 -19 -610 -43 -651 -73
-18 -13 -33 -39 -44 -76 -9 -31 -22 -72 -29 -91 -34 -91 -39 -107 -43 -138 -3
-18 -9 -35 -14 -38 -5 -3 -9 -22 -8 -42 l1 -37 12 37 c6 20 17 43 24 50 6 6
12 17 12 24 0 6 20 51 45 100 43 83 90 145 126 164 50 28 362 53 819 66 127 4
205 10 225 19 17 7 50 22 75 33 25 11 52 22 60 25 20 7 -74 6 -250 -4z"/>
<path d="M2575 2410 c-5 -8 49 -87 76 -110 9 -8 151 -219 194 -289 22 -35 48
-75 57 -90 10 -14 22 -35 28 -46 28 -58 -2 -54 481 -55 381 -1 444 0 447 13 4
20 -114 139 -180 180 -47 30 -110 62 -173 88 -11 5 -63 18 -115 30 -114 26
-162 46 -238 97 -48 33 -129 112 -180 176 -11 14 -40 16 -202 16 -116 0 -191
-4 -195 -10z"/>
<path d="M2021 2386 c-24 -29 -79 -588 -60 -612 5 -6 48 -14 97 -17 107 -7
294 -23 467 -39 72 -7 164 -13 205 -13 l75 0 3 40 c2 32 -2 45 -20 62 -21 20
-41 23 -173 32 -83 5 -188 11 -235 13 l-85 3 0 -27 c0 -39 -9 -42 -58 -20 -86
38 -160 142 -186 260 -16 76 -14 221 4 272 8 23 12 46 9 51 -8 13 -30 11 -43
-5z"/>
<path d="M318 1514 c-5 -4 -8 -47 -8 -95 0 -55 -6 -103 -15 -126 -8 -21 -16
-71 -17 -112 l-3 -73 50 -15 c98 -29 108 -37 86 -72 -8 -12 -19 -12 -67 -3
-83 17 -114 16 -115 -5 -3 -37 3 -98 11 -108 9 -11 54 -27 165 -61 73 -22 95
-44 95 -95 0 -44 34 -149 51 -160 7 -4 9 -13 6 -21 -5 -15 -95 -30 -247 -43
-35 -3 -68 -9 -74 -15 -16 -16 33 -27 154 -34 63 -4 151 -11 195 -16 44 -6
145 -14 225 -20 289 -20 445 -39 606 -76 33 -8 72 -14 86 -14 14 0 38 -4 54
-10 16 -5 58 -14 94 -20 36 -5 90 -14 120 -20 86 -16 206 -37 315 -54 55 -9
127 -21 160 -27 66 -11 158 -22 310 -39 55 -6 152 -16 215 -23 157 -17 798
-16 955 1 66 7 163 18 215 23 52 6 149 17 215 25 166 20 377 42 520 54 66 6
127 13 135 15 8 2 56 9 105 15 107 13 165 27 165 41 0 12 -3 13 -100 32 -137
27 -194 37 -300 48 -110 11 -143 26 -121 52 6 8 24 39 39 68 20 41 33 55 52
57 43 6 148 40 175 58 36 23 18 40 -27 25 -18 -6 -76 -21 -128 -33 -86 -19
-141 -21 -570 -28 -407 -6 -484 -9 -540 -24 -36 -10 -93 -20 -128 -23 -85 -6
-107 8 -116 77 -15 112 -47 211 -93 283 -22 34 -24 44 -13 60 10 17 10 19 -5
13 -12 -4 -34 10 -76 48 -32 30 -84 67 -116 83 -51 24 -69 28 -148 28 -73 0
-98 -4 -132 -22 -88 -47 -131 -107 -172 -241 -30 -96 -43 -102 -201 -91 -63 4
-139 12 -169 18 -29 6 -83 11 -120 11 -36 0 -106 7 -156 15 -49 8 -117 15
-150 15 -33 0 -98 7 -145 15 -47 8 -114 15 -150 15 -36 0 -103 7 -150 15 -47
8 -112 15 -145 15 -56 0 -168 14 -207 26 -10 3 -18 12 -18 20 0 18 31 18 135
-1 44 -8 112 -15 150 -15 39 0 106 -7 150 -15 44 -8 112 -15 150 -15 39 0 106
-7 150 -15 44 -8 112 -15 152 -15 39 0 107 -7 150 -15 43 -8 110 -15 148 -15
39 0 104 -6 145 -14 41 -8 109 -16 150 -18 l75 -3 7 60 c16 144 74 249 183
331 71 53 120 69 213 68 116 -2 191 -40 274 -139 32 -38 61 -83 65 -98 3 -15
14 -32 24 -38 26 -13 76 -104 84 -150 7 -43 30 -57 45 -29 5 10 10 82 10 159
0 163 5 175 74 167 165 -20 895 -24 1069 -6 51 5 118 10 149 10 56 0 80 11 56
26 -7 5 -81 7 -165 5 -84 -1 -158 1 -165 6 -7 4 61 12 157 18 l170 10 -4 25
c-2 14 -4 52 -4 85 l0 60 -453 0 c-250 0 -454 -2 -454 -6 0 -3 11 -27 25 -53
14 -26 25 -51 25 -56 0 -5 -14 -29 -31 -54 l-30 -46 -62 0 c-120 1 -422 19
-452 28 -28 8 -30 12 -35 68 l-5 59 -90 6 c-305 21 -423 30 -530 40 -66 5
-192 14 -280 19 -190 10 -435 26 -635 41 -80 5 -224 14 -320 19 -308 16 -551
29 -710 40 -287 19 -385 22 -392 14z m423 -176 c23 -18 49 -43 57 -55 23 -36
-9 -40 -69 -9 -85 44 -154 32 -219 -37 -25 -27 -50 -35 -50 -18 0 37 55 107
106 134 16 9 52 16 81 17 43 0 58 -5 94 -32z m-22 -288 c26 0 71 -64 94 -134
33 -96 10 -218 -53 -286 -52 -56 -84 -55 -147 8 -40 38 -51 58 -62 104 -24
100 4 232 57 276 28 22 76 42 90 37 8 -3 17 -5 21 -5z m2311 -208 c29 -33 52
-71 63 -105 57 -180 -37 -385 -176 -387 -70 0 -128 45 -175 135 -21 42 -25 64
-25 135 0 72 4 94 27 143 27 55 78 113 114 129 10 4 42 6 72 4 51 -3 57 -6
100 -54z m-1800 -112 c41 -6 118 -14 170 -20 154 -15 280 -29 360 -40 41 -6
129 -15 195 -20 105 -8 183 -25 200 -42 3 -2 -158 -8 -357 -12 -200 -3 -419
-11 -488 -16 -305 -23 -320 -23 -320 -12 0 6 8 30 19 54 10 24 22 59 26 78 4
19 12 38 17 41 11 7 62 4 178 -11z m2750 -225 c0 -23 -4 -25 -47 -25 -58 0
-269 19 -303 27 l-25 6 25 7 c14 5 98 8 188 9 l162 1 0 -25z"/>
<path d="M4660 1020 c-36 -4 -185 -11 -332 -15 -209 -6 -270 -11 -279 -21 -9
-11 -7 -26 8 -66 29 -76 32 -77 376 -62 158 7 310 17 337 24 56 13 69 37 60
105 l-5 40 -50 1 c-27 1 -79 -2 -115 -6z"/>
</g>
</svg>
