<?xml version="1.0" standalone="no"?>
<!DOCTYPE svg PUBLIC "-//W3C//DTD SVG 20010904//EN"
 "http://www.w3.org/TR/2001/REC-SVG-20010904/DTD/svg10.dtd">
<svg version="1.0" xmlns="http://www.w3.org/2000/svg"
 width="300.000000pt" height="300.000000pt" viewBox="0 0 300.000000 300.000000"
 preserveAspectRatio="xMidYMid meet">
<metadata>
Created by potrace 1.10, written by Peter Selinger 2001-2011
</metadata>
<g transform="translate(0.000000,300.000000) scale(0.100000,-0.100000)"
fill="#000000" stroke="none">
<path d="M1473 2970 c-15 -6 -42 -49 -84 -132 -34 -68 -63 -124 -64 -126 -2
-2 -63 -12 -136 -23 -137 -20 -155 -27 -170 -67 -13 -34 1 -55 107 -157 l93
-90 -24 -130 c-27 -147 -23 -177 26 -194 27 -9 43 -4 155 55 l125 65 125 -67
c137 -72 154 -74 188 -21 14 21 14 35 -8 158 l-25 134 93 90 c106 102 120 123
107 157 -15 40 -33 47 -170 67 -73 11 -134 21 -136 23 -1 2 -30 58 -64 126
-46 93 -68 125 -87 132 -14 6 -26 10 -27 9 -1 0 -12 -4 -24 -9z m59 -47 c9
-10 41 -69 72 -130 42 -85 62 -114 78 -118 13 -3 72 -12 131 -20 132 -19 137
-21 137 -51 0 -17 -28 -51 -95 -117 -107 -106 -104 -96 -79 -242 20 -119 17
-159 -14 -163 -13 -2 -72 23 -142 60 l-120 63 -119 -63 c-65 -34 -128 -62
-139 -62 -40 0 -43 33 -17 174 26 134 27 129 -80 233 -69 67 -95 99 -95 117 0
30 4 31 140 51 58 8 115 17 127 20 15 4 37 36 78 117 64 125 80 148 105 148 9
0 24 -8 32 -17z"/>
<path d="M1478 2753 c-9 -10 -30 -46 -47 -80 l-30 -61 -73 -11 c-86 -14 -102
-21 -106 -49 -2 -15 14 -38 53 -78 l57 -57 -8 -61 c-18 -147 -9 -157 101 -103
l75 37 70 -35 c38 -19 76 -35 84 -35 28 0 38 36 26 97 -17 92 -15 99 46 159
38 38 54 62 52 76 -4 28 -20 35 -106 49 l-73 11 -30 61 c-31 62 -56 97 -69 97
-4 0 -14 -8 -22 -17z m61 -82 c18 -39 39 -75 46 -81 8 -7 49 -16 92 -22 43 -6
79 -12 81 -13 2 -2 -24 -30 -57 -62 -68 -66 -71 -77 -47 -190 l13 -63 -73 40
c-40 22 -82 40 -94 40 -12 0 -54 -18 -94 -40 l-73 -40 13 63 c24 113 21 124
-47 190 -33 32 -59 60 -57 61 2 2 38 8 81 14 43 5 84 15 92 22 7 6 28 42 46
81 18 38 35 69 39 69 4 0 21 -31 39 -69z"/>
<path d="M270 2392 c-22 -18 -23 -24 -21 -151 1 -73 4 -138 6 -144 3 -7 -41
-45 -96 -86 -100 -74 -139 -112 -139 -137 0 -7 10 -24 22 -39 18 -19 53 -33
147 -60 68 -19 127 -39 130 -44 4 -6 26 -66 50 -135 37 -109 46 -126 71 -136
16 -7 38 -9 50 -5 12 4 55 57 99 123 l78 117 139 3 c134 3 140 4 162 28 38 43
38 44 -107 229 l-44 56 36 119 c42 134 45 170 19 193 -28 26 -59 21 -190 -28
l-120 -46 -113 81 c-61 44 -122 80 -134 80 -13 0 -33 -8 -45 -18z m176 -98
c117 -81 121 -82 199 -48 22 10 45 19 50 20 6 1 37 12 69 23 108 38 115 20 60
-156 -19 -63 -33 -122 -30 -131 3 -9 40 -60 81 -112 61 -77 75 -101 73 -125
l-3 -30 -125 -2 c-69 -2 -135 -5 -148 -8 -15 -4 -48 -44 -99 -120 -66 -100
-80 -115 -103 -115 -15 0 -32 6 -37 13 -6 6 -27 62 -47 123 -22 67 -46 119
-59 131 -12 11 -69 33 -127 48 -176 46 -182 61 -61 151 42 31 91 71 109 87
l32 31 -1 138 c0 76 2 142 6 148 14 23 57 6 161 -66z"/>
<path d="M370 2201 c-5 -11 -10 -55 -10 -99 l0 -79 -60 -47 c-34 -26 -64 -54
-67 -63 -8 -22 28 -50 75 -59 76 -14 99 -30 118 -81 38 -104 43 -113 63 -113
12 0 32 19 55 54 57 85 58 86 145 86 117 0 127 23 56 118 -25 33 -45 68 -45
77 0 10 9 49 21 88 19 63 19 71 5 85 -14 15 -22 14 -88 -8 -40 -13 -81 -23
-92 -22 -10 0 -45 19 -76 41 -65 46 -85 50 -100 22z m243 -80 c40 15 80 30 89
34 14 6 13 -4 -9 -72 -16 -48 -24 -89 -20 -104 4 -13 28 -51 55 -84 l49 -60
-91 -2 c-88 -3 -92 -4 -118 -34 -15 -17 -37 -51 -50 -75 -13 -24 -25 -44 -28
-44 -3 0 -14 29 -24 65 -25 88 -45 110 -114 130 -116 33 -110 27 -65 57 22 14
56 42 76 61 l37 35 -6 87 -7 87 77 -53 77 -54 72 26z"/>
<path d="M2551 2330 l-113 -81 -120 46 c-132 49 -166 54 -191 27 -25 -27 -21
-60 20 -192 l36 -119 -44 -56 c-145 -185 -145 -186 -106 -229 21 -24 27 -25
161 -28 l139 -3 78 -117 c44 -66 87 -119 99 -123 12 -4 34 -2 50 5 25 10 34
27 70 134 23 68 45 128 49 135 4 7 64 27 132 46 94 27 129 41 147 60 12 15 22
32 22 39 0 24 -37 60 -139 136 -55 41 -99 80 -96 87 2 6 5 71 6 144 2 127 1
133 -21 151 -12 10 -32 18 -45 18 -12 0 -73 -36 -134 -80z m169 -113 l0 -143
33 -30 c17 -17 67 -57 110 -89 57 -43 77 -64 77 -81 0 -29 -11 -35 -142 -70
-58 -15 -114 -33 -123 -40 -9 -7 -38 -70 -63 -141 -46 -124 -48 -128 -78 -131
-29 -3 -35 3 -94 92 -102 155 -86 146 -243 146 -187 0 -192 8 -89 139 116 145
110 122 68 259 -41 136 -44 168 -17 177 11 3 70 -13 142 -40 74 -27 131 -43
143 -39 10 4 68 40 128 80 148 101 148 101 148 -89z"/>
<path d="M2537 2184 c-72 -53 -83 -55 -158 -28 -78 28 -92 29 -109 9 -10 -12
-8 -28 9 -84 12 -38 21 -77 21 -87 0 -10 -19 -43 -43 -73 -61 -78 -61 -80 -41
-102 14 -16 31 -19 93 -19 42 0 81 -4 87 -8 5 -4 30 -35 54 -70 59 -86 75 -83
113 24 l28 80 67 18 c75 20 112 40 112 61 0 12 -30 40 -110 104 -23 17 -25 28
-30 113 -4 84 -7 93 -25 95 -11 2 -42 -13 -68 -33z m69 -70 l-6 -86 37 -35
c20 -19 54 -47 76 -61 45 -30 51 -24 -65 -57 -69 -20 -89 -42 -114 -130 -10
-36 -21 -65 -24 -65 -3 0 -15 20 -28 44 -13 24 -35 58 -50 75 -26 30 -30 31
-117 34 l-91 2 53 69 c29 37 53 78 53 90 0 13 -11 55 -25 95 -22 64 -22 72 -7
66 9 -4 49 -19 89 -34 l72 -26 73 52 c40 28 75 52 77 52 2 1 1 -38 -3 -85z"/>
<path d="M1455 1875 c-25 -24 -25 -26 -25 -216 l0 -191 -62 -103 c-58 -93 -69
-106 -140 -154 l-78 -51 0 40 c0 30 -7 47 -25 65 l-24 25 -254 0 c-242 0 -256
-1 -281 -21 l-26 -20 0 -590 0 -590 25 -25 25 -25 261 3 c234 3 262 5 273 20
13 17 15 17 47 0 31 -15 82 -17 529 -20 335 -2 511 0 546 8 126 27 199 166
150 285 -14 33 -14 36 13 64 48 52 63 139 36 215 -13 38 -13 41 15 73 56 63
63 167 16 236 -22 32 -22 35 -6 58 73 102 32 251 -83 304 -51 24 -59 25 -294
25 l-241 0 -4 193 c-3 168 -6 198 -24 237 -44 96 -115 148 -229 169 -88 16
-113 14 -140 -14z m228 -49 c112 -54 137 -121 137 -367 0 -145 2 -168 18 -182
14 -13 57 -16 262 -19 234 -3 247 -4 285 -26 62 -36 85 -76 85 -151 0 -47 -6
-74 -22 -103 l-23 -40 23 -38 c16 -29 22 -55 22 -103 0 -58 -4 -70 -35 -116
l-35 -51 16 -40 c24 -60 15 -130 -25 -187 -26 -36 -31 -52 -26 -72 4 -14 9
-55 12 -91 4 -60 2 -68 -27 -108 -53 -74 -36 -72 -616 -72 -364 0 -528 3 -555
12 -30 9 -45 8 -62 -1 -16 -8 -96 -11 -282 -9 l-260 3 -3 588 -2 587 26 10
c33 13 465 13 498 0 21 -8 26 -16 26 -44 0 -18 8 -44 18 -56 l17 -21 75 49
c89 58 90 59 168 186 l62 99 0 192 c0 105 3 195 8 199 4 5 41 6 83 4 57 -3 91
-12 132 -32z"/>
<path d="M1557 1762 c-14 -16 -17 -43 -17 -173 l0 -154 -76 -125 -75 -125
-111 -72 c-168 -110 -154 -83 -162 -295 -3 -100 -3 -271 0 -381 8 -221 13
-237 83 -284 l34 -23 499 0 500 0 34 34 c39 39 45 80 18 122 -23 34 -50 47
-109 54 -48 5 -50 6 -50 35 l0 30 75 5 c110 8 140 30 140 107 0 68 -38 96
-139 103 l-76 5 0 30 0 30 103 5 c102 5 104 6 133 38 31 35 39 94 16 122 -31
38 -51 45 -151 50 l-101 5 0 30 0 30 103 5 c102 5 104 6 133 38 48 54 35 129
-28 161 -14 7 -113 11 -295 11 -200 0 -277 3 -286 12 -9 9 -12 70 -12 212 0
261 -15 312 -100 356 -48 25 -62 25 -83 2z m91 -38 c13 -9 32 -34 43 -57 16
-37 19 -68 19 -253 0 -198 1 -213 21 -238 l20 -26 285 0 285 0 24 -25 c30 -30
31 -54 4 -89 -19 -25 -25 -26 -110 -26 -118 0 -149 -15 -149 -74 0 -55 21 -66
132 -66 92 0 101 -2 123 -25 30 -30 31 -54 4 -89 -19 -25 -25 -26 -113 -26
-79 0 -97 -3 -120 -21 -19 -15 -26 -30 -26 -53 0 -50 23 -63 114 -68 67 -3 81
-7 97 -27 24 -29 24 -62 2 -90 -15 -18 -30 -22 -94 -24 -90 -2 -119 -20 -119
-72 0 -45 29 -68 92 -71 62 -4 88 -25 88 -70 0 -23 -7 -38 -26 -53 -26 -21
-36 -21 -506 -21 -519 0 -523 0 -566 55 -22 27 -22 33 -22 404 l0 376 136 88
c74 49 138 96 141 105 4 9 37 67 75 128 l68 111 0 162 0 163 28 -7 c15 -3 38
-13 50 -21z"/>
<path d="M667 1162 c-15 -17 -17 -67 -17 -509 0 -462 1 -491 18 -506 16 -14
44 -17 180 -17 154 0 162 1 176 22 13 19 15 88 16 505 0 444 -1 484 -17 503
-16 19 -29 20 -179 20 -143 0 -163 -2 -177 -18z m343 -507 l0 -495 -165 0
-165 0 0 495 0 495 165 0 165 0 0 -495z"/>
<path d="M814 338 c-53 -25 -50 -111 5 -125 52 -14 91 12 91 62 0 50 -52 84
-96 63z m61 -63 c0 -27 -3 -30 -30 -30 -21 0 -31 5 -33 18 -6 33 6 49 35 45
24 -3 28 -8 28 -33z"/>
</g>
</svg>
